<svg width="100" height="100" viewBox="0 0 100 100" fill="none" xmlns="http://www.w3.org/2000/svg">
<path d="M82.375 2.18749C78.6797 2.33593 75.7109 3.47655 73.375 5.43749C72.3125 6.32811 71.3984 7.35936 70.5625 8.49999C64.375 7.85936 59 11.6562 56.5625 16.125C52.4141 23.7422 44.7187 42.9062 29.5 49.875C20.0625 54.1953 14.9531 59.5312 12.8125 65.125C8.5078 66.7812 4.76561 68.7266 2.37499 71.8125C-0.507823 75.5312 -0.843761 80.75 2.06249 87.375C3.55468 90.7812 6.39843 92.9219 9.62499 93.875C12.8516 94.8281 16.4687 94.7187 20.125 94.125C21.0391 93.9766 21.9609 93.7734 22.875 93.5625C28.3359 97.9375 35.3828 99.1484 43.75 96.1875C52.2734 93.1641 62.3437 86.0312 75.0625 73.875C91.0703 58.5703 97.6406 45.625 99.4375 35.875C100.336 31 100.031 26.9375 99.0625 23.8125C98.1953 21.0156 96.8906 18.9766 95.125 17.8125C96.6015 14.2891 96.3125 11 94.9375 8.49999C92.8984 4.78905 89.289 2.74999 86.3125 2.37499C84.914 2.1953 83.6094 2.14061 82.375 2.18749ZM82.5625 6.18749C83.539 6.16405 84.5937 6.21874 85.8125 6.37499C87.0703 6.53124 90.1719 8.12499 91.4375 10.4375C92.6484 12.6406 92.6875 15.5 89 19.75C85.25 19.4375 81.8594 20.3125 79.1875 22.375C76.1406 24.7266 73.7812 28.125 71.5 31.9375C66.9375 39.5547 62.7344 48.9844 55.9375 55.75C46.2734 65.375 40.125 69.5234 36.75 73.125C35.0625 74.9219 33.9453 76.9531 34.0625 79.1875C34.1484 80.8281 34.9375 82.375 35.9375 84.125C31.6094 86.5625 25.3828 89.2266 19.5 90.1875C16.2187 90.7266 13.1172 90.7578 10.75 90.0625C8.3828 89.3672 6.77343 88.0781 5.74999 85.75C3.16405 79.8594 3.62499 76.75 5.56249 74.25C7.49999 71.75 11.5547 69.7656 16.8125 67.9375C27.3281 64.2734 42.1484 61.1328 51.9375 50.3125C62.7187 38.3984 66.5312 26.1641 70.125 17.75C71.9219 13.5391 73.6953 10.3828 75.9375 8.49999C77.6172 7.09374 79.625 6.2578 82.5625 6.18749ZM68.1875 12.5C67.5937 13.6719 66.9922 14.8984 66.4375 16.1875C62.7031 24.9375 59.1797 36.3672 49 47.625C41.0469 56.4141 28.7734 59.7656 18.375 63.1875C20.6719 59.8594 24.6172 56.5078 31.1875 53.5C48.4297 45.6094 56.3906 24.9219 60.125 18.0625C61.5859 15.4062 64.664 12.9453 68.1875 12.5ZM93.125 21.3125C93.7656 21.8672 94.6406 23.0469 95.25 25C96 27.4062 96.3594 30.8672 95.5625 35.1875C93.9687 43.8359 87.8984 56.1016 72.3125 71C59.8047 82.9609 49.9609 89.6875 42.375 92.375C36.3281 94.5156 31.875 94.2422 28 92.125C32.5234 90.5937 36.6641 88.5625 39.6875 86.6875L41.4375 85.625L40.375 83.9375C38.7812 81.4609 38.1094 79.8516 38.0625 78.9375C38.0156 78.0234 38.3281 77.3281 39.6875 75.875C42.4141 72.9687 48.8984 68.3672 58.75 58.5625C66.25 51.0937 70.5781 41.2891 74.9375 34C77.1172 30.3516 79.289 27.3672 81.625 25.5625C83.9609 23.7578 86.3359 22.9844 89.75 23.625L90.875 23.875L91.625 23.0625C92.1797 22.4687 92.6797 21.9062 93.125 21.3125Z" fill="#1ABB9C"/>
<circle cx="83.5" cy="14.5" r="1.5" fill="#383838"/>
<circle cx="78.5" cy="12.5" r="1.5" fill="#383838"/>
</svg>
