<svg width="32" height="32" viewBox="0 0 32 32" fill="none" xmlns="http://www.w3.org/2000/svg">
<path d="M12.6745 10.4099C13.1226 10.188 13.8656 10.0209 14.86 9.59531C15.4064 9.39166 16.5539 8.68939 17.0019 8.46747C17.4317 8.34387 17.6284 8.38039 18.0034 8.55175C18.575 8.75963 18.9571 9.44084 18.8293 10.1291C18.738 10.6207 18.2534 11.0392 17.8854 11.3777C17.6522 11.5378 17.2042 11.7598 16.971 11.9199C16.7379 12.08 16.6395 12.0617 16.4064 12.2218C16.0749 12.3637 15.86 12.4255 16.2715 12.4002C16.7814 12.3932 17.5862 12.441 18.4093 12.3904C19.0175 12.4016 19.134 12.3216 19.5456 12.2963C20.0554 12.2893 20.3686 12.2457 20.8785 12.2387C21.1917 12.1952 21.9965 12.243 22.4081 12.2177C22.9179 12.2107 23.8028 12.375 24.123 12.8413C24.3632 13.191 24.3519 13.7992 24.0823 14.156C23.696 14.5928 22.953 14.7599 22.6398 14.8035C22.1117 14.9088 21.3869 14.9776 20.5821 14.9299C19.5624 14.9439 18.0328 14.965 17.7379 14.9102C18.1312 14.9832 18.8377 15.0127 19.2127 15.1841C19.4894 15.3372 19.8461 15.6068 19.8714 16.0184C19.9149 16.3316 19.8602 16.6266 19.8054 16.9215C19.6523 17.1982 19.4009 17.4566 19.1677 17.6168C18.5048 17.9005 17.2266 17.6631 17.3249 17.6814C17.6999 17.8527 18.4865 17.9988 18.8432 18.2685C19.0216 18.4033 19.1452 18.8331 19.207 19.048C19.2506 19.3612 19.1775 19.7545 19.0244 20.0312C18.9879 20.2278 18.6199 20.5663 18.405 20.6281C18.0735 20.77 17.0721 20.6857 16.6606 20.711C16.5622 20.6927 17.0356 20.8823 17.294 21.1338C17.8109 21.6366 17.7519 23.0496 16.3572 22.8922C15.6689 22.7644 15.7672 22.7827 15.2756 22.6914C14.7841 22.6001 14.4891 22.5453 14.0958 22.4723C13.7025 22.3992 12.8359 22.1366 12.4609 21.9652C12.1842 21.8121 11.5508 21.3893 11.2123 21.0213C11.2123 21.0213 10.2333 19.7207 9.66166 19.5128C9.09001 19.305 9.09001 19.305 8.69673 19.2319C8.30346 19.1589 7.79361 19.1659 7.79361 19.1659C7.79361 19.1659 7.84137 18.3611 8.01272 17.9861C8.18408 17.6111 8.96361 17.2473 9.27683 17.2038C9.60831 17.0619 9.66309 16.7669 9.40465 16.5155C9.04789 16.2458 8.45096 15.6264 8.524 15.2332C8.5535 14.5267 8.90746 13.1685 9.09006 12.1853C9.09006 12.1853 10.0367 12.5645 10.503 12.2443C10.8528 12.0041 11.4357 11.6038 11.7854 11.3636L12.6745 10.4099Z" fill="#FFFBF5"/>
<path d="M12.6745 10.4099C13.1226 10.188 13.8656 10.0209 14.86 9.59531C15.4064 9.39166 16.5539 8.68939 17.0019 8.46747C17.4317 8.34387 17.6284 8.38039 18.0034 8.55175C18.575 8.75963 18.9571 9.44084 18.8293 10.1291C18.738 10.6207 18.2534 11.0392 17.8854 11.3777C17.6522 11.5378 17.2042 11.7598 16.971 11.9199C16.7379 12.08 16.6395 12.0617 16.4064 12.2218C16.0749 12.3637 15.86 12.4255 16.2715 12.4002C16.7814 12.3932 17.5862 12.441 18.4093 12.3904C19.0175 12.4016 19.134 12.3216 19.5456 12.2963C20.0554 12.2893 20.3686 12.2457 20.8785 12.2387C21.1917 12.1952 21.9965 12.243 22.4081 12.2177C22.9179 12.2107 23.8028 12.375 24.123 12.8413C24.3632 13.191 24.3519 13.7992 24.0823 14.156C23.696 14.5928 22.953 14.7599 22.6398 14.8035C22.1117 14.9088 21.3869 14.9776 20.5821 14.9299C19.5624 14.9439 18.0328 14.965 17.7379 14.9102C18.1312 14.9832 18.8377 15.0127 19.2127 15.1841C19.4894 15.3372 19.8461 15.6068 19.8714 16.0184C19.9149 16.3316 19.8602 16.6266 19.8054 16.9215C19.6523 17.1982 19.4009 17.4566 19.1677 17.6168C18.5048 17.9005 17.2266 17.6631 17.3249 17.6814C17.6999 17.8527 18.4865 17.9988 18.8432 18.2685C19.0216 18.4033 19.1452 18.8331 19.207 19.048C19.2506 19.3612 19.1775 19.7545 19.0244 20.0312C18.9879 20.2278 18.6199 20.5663 18.405 20.6281C18.0735 20.77 17.0721 20.6857 16.6606 20.711C16.5622 20.6927 17.0356 20.8823 17.294 21.1338C17.8109 21.6366 17.7519 23.0496 16.3572 22.8922C15.6689 22.7644 15.7672 22.7827 15.2756 22.6914C14.7841 22.6001 14.4891 22.5453 14.0958 22.4723C13.7025 22.3992 12.8359 22.1366 12.4609 21.9652C12.1842 21.8121 11.5508 21.3893 11.2123 21.0213C11.2123 21.0213 10.2333 19.7207 9.66166 19.5128C9.09001 19.305 9.09001 19.305 8.69673 19.2319C8.30346 19.1589 7.79361 19.1659 7.79361 19.1659C7.79361 19.1659 7.84137 18.3611 8.01272 17.9861C8.18408 17.6111 8.96361 17.2473 9.27683 17.2038C9.60831 17.0619 9.66309 16.7669 9.40465 16.5155C9.04789 16.2458 8.45096 15.6264 8.524 15.2332C8.5535 14.5267 8.90746 13.1685 9.09006 12.1853C9.09006 12.1853 10.0367 12.5645 10.503 12.2443C10.8528 12.0041 11.4357 11.6038 11.7854 11.3636L12.6745 10.4099Z" stroke="#383838" stroke-width="0.75" stroke-linecap="round" stroke-linejoin="round"/>
<path d="M10.864 18.5156L14.2068 19.1364" stroke="#383838" stroke-width="0.75" stroke-linecap="round"/>
<path d="M11.2292 16.5492L14.5903 17.0717" stroke="#383838" stroke-width="0.75" stroke-linecap="round"/>
<path d="M14.9372 15.2037L11.5944 14.5829" stroke="#383838" stroke-width="0.75" stroke-linecap="round"/>
</svg>
